<?xml version="1.0" encoding="utf-8"?>
<!-- Svg Vector Icons : http://www.onlinewebfonts.com/icon -->
<!DOCTYPE svg PUBLIC "-//W3C//DTD SVG 1.1//EN" "http://www.w3.org/Graphics/SVG/1.1/DTD/svg11.dtd">
<svg version="1.1" xmlns="http://www.w3.org/2000/svg" xmlns:xlink="http://www.w3.org/1999/xlink" x="0px" y="0px" viewBox="0 0 1000 1000" enable-background="new 0 0 1000 1000" xml:space="preserve">
<metadata> Svg Vector Icons : http://www.onlinewebfonts.com/icon </metadata>
<g><g transform="translate(0.000000,511.000000) scale(0.100000,-0.100000)"><path d="M6488.7,3549.8c-36.1-18-502.5-468.7-1034.4-1000.6c-534.1-534.1-975.8-966.8-984.8-960c-9,4.5-130.7,0-272.7-13.5c-247.9-22.5-1372.4-259.2-1719.4-362.8c-534.1-160-1104.2-570.1-1381.4-996C967.6,20.8,987.9,68.2,593.5-934.7c-304.2-772.9-317.7-815.8-308.7-942c18-245.6,211.8-423.7,459.7-423.7c65.3,0,146.5,11.3,178,22.5c54.1,20.3,58.6,18,45.1-15.8c-9-22.5-65.3-182.5-128.5-356c-105.9-299.7-108.2-320-78.9-385.4c20.3-38.3,65.4-81.1,103.7-99.1c65.4-27.1,94.7-20.3,380.8,83.4l308.7,112.7l87.9-78.9c114.9-101.4,211.8-139.7,358.3-139.7c65.4,0,525.1,60.8,1018.6,137.5c865.3,130.7,939.7,137.5,1859.1,189.3c1129,63.1,1185.3,67.6,1464.8,123.9c193.8,40.6,912.7,252.4,939.7,277.2c9,11.3,570.1,2774.1,563.4,2778.6c-13.5,6.8-1500.9,662.5-1534.6,676.1c-31.5,11.3-259.2-202.8-1097.4-1041.1c-921.7-921.7-1056.9-1065.9-1056.9-1124.5c-2.3-85.6-90.1-302-171.3-419.2c-101.4-146.5-205.1-191.6-561.1-245.6c-173.5-24.8-340.3-51.8-371.8-58.6c-38.3-6.8,685.1,732.4,2167.9,2215.2l2226.4,2226.5l20.3,117.2c60.8,313.2-114.9,658-414.6,813.5C6912.3,3581.4,6601.4,3603.9,6488.7,3549.8z M6883,3153.2c108.2-56.3,180.3-155.5,196.1-272.7c13.5-90.1,9-94.6-175.8-281.7L6714,2409.5l-207.3,207.3l-209.6,209.6l184.8,184.8C6689.3,3218.6,6727.6,3232.1,6883,3153.2z M6376,2477.2l202.8-202.8L4307.3,2.8L2038-2266.5l-207.3,209.6l-209.6,207.3L3885.9,415.2C5132.1,1661.4,6155.2,2680,6161.9,2680S6265.6,2587.6,6376,2477.2z M2669-233.8c0-2.3-254.6-259.2-565.6-567.9c-556.6-556.6-563.4-561.1-520.6-446.2c133,353.8,446.2,676.1,901.4,923.9C2657.7-227,2669-222.5,2669-233.8z M1700-2198.9c103.7-103.7,184.8-193.8,178-200.6c-18-18-588.2-220.8-597.2-211.8c-11.3,11.3,200.6,603.9,216.3,603.9C1503.9-2007.3,1594.1-2092.9,1700-2198.9z"/><path d="M8336.6,618c-31.6-29.3-56.3-63.1-56.3-72.1c0-9-157.8-791-347.1-1737.4c-229.8-1140.3-340.3-1739.7-331.2-1780.3c9-31.6,40.6-76.6,72.1-99.2c58.6-42.8,1223.7-288.4,1372.4-288.4c166.8,0,146.5-72.1,531.8,1859.1C9952.3,367.9,9945.6,316,9830.6,390.4c-58.6,36.1-1243.9,283.9-1363.4,283.9C8415.4,674.3,8372.6,656.3,8336.6,618z M8719.7-2284.5c144.2-144.2,117.2-353.8-58.6-448.5c-180.3-101.4-403.4,31.6-403.4,241.1c0,175.8,105.9,279.4,290.7,281.7C8629.5-2210.1,8658.8-2223.7,8719.7-2284.5z"/><path d="M165.4-2861.4c-38.3-40.6-65.4-90.1-65.4-126.2c0-72.1,110.4-191.5,178-191.5c108.2,0,205.1,90.1,205.1,191.5c0,60.8-49.6,142-105.9,166.7C289.3-2780.3,235.2-2791.5,165.4-2861.4z"/></g></g>
</svg>